<svg width="58" height="57" viewBox="0 0 58 57" fill="none" xmlns="http://www.w3.org/2000/svg">
<path d="M15.0412 39.6595C14.9956 37.8643 15.6653 36.1242 16.9037 34.8201C18.1422 33.5161 19.8485 32.7543 21.649 32.7016C22.279 32.7027 22.9052 32.7977 23.5069 32.9835C23.8894 31.6089 24.7087 30.3949 25.8418 29.5238C26.9749 28.6526 28.3608 28.1711 29.7916 28.1516C29.9855 28.1516 30.1875 28.1516 30.3813 28.1516C30.8349 26.8882 31.6655 25.7935 32.7616 25.0147C33.8576 24.2359 35.1666 23.8102 36.5125 23.7949C36.9552 23.7981 37.3965 23.8467 37.8292 23.9399C37.3015 19.6628 35.3915 15.6732 32.3878 12.5742C29.3841 9.47523 25.4502 7.43527 21.1805 6.7627C22.5886 9.78692 23.2093 13.1162 22.9852 16.4429C22.7611 19.7695 21.6994 22.9862 19.8983 25.7955C18.0971 28.6049 15.6147 30.9163 12.6803 32.5161C9.746 34.1158 6.45449 34.9524 3.11003 34.9484C2.06874 34.9459 1.02911 34.8652 0 34.7068C1.59452 38.1468 4.14342 41.06 7.34555 43.102C10.5477 45.1441 14.2692 46.2298 18.0705 46.2308C18.539 46.2308 18.9994 46.2308 19.4599 46.1744C18.1495 45.6604 17.026 44.7629 16.2373 43.5999C15.4485 42.437 15.0315 41.0632 15.0412 39.6595Z" fill="white"/>
<path d="M49.7032 33.2574C49.2274 33.2593 48.7523 33.2943 48.2814 33.362C47.7916 32.3108 47.0086 31.4223 46.026 30.8025C45.0434 30.1828 43.9026 29.858 42.7399 29.867C42.4698 29.8695 42.2 29.8883 41.9321 29.9234C41.8162 28.6126 41.2252 27.3888 40.2696 26.481C39.314 25.5733 38.0594 25.0437 36.7405 24.9913C35.4216 24.939 34.1288 25.3676 33.1039 26.1968C32.079 27.026 31.3923 28.1991 31.1722 29.4966C30.7225 29.371 30.258 29.306 29.7909 29.3033C28.3872 29.3483 27.0505 29.9125 26.041 30.8861C25.0316 31.8596 24.4218 33.1728 24.3302 34.57C23.5218 34.0805 22.5942 33.8215 21.6483 33.8211C20.1702 33.9306 18.7883 34.5933 17.7798 35.6761C16.7714 36.759 16.2109 38.1819 16.2109 39.6595C16.2109 41.1372 16.7714 42.5601 17.7798 43.643C18.7883 44.7258 20.1702 45.3885 21.6483 45.498C21.919 45.4938 22.189 45.4696 22.4561 45.4255C22.8126 46.5055 23.497 47.4482 24.4145 48.1234C25.332 48.7986 26.4373 49.1729 27.5776 49.1944C28.3279 49.1948 29.0693 49.0327 29.7505 48.7192C30.6182 49.5402 31.6401 50.182 32.7575 50.6077C33.8749 51.0333 35.0657 51.2345 36.2614 51.1996C39.8642 51.1996 42.9096 49.444 43.8951 47.0362C44.8204 47.7854 45.9746 48.1973 47.1667 48.2038C48.2833 48.1842 49.3675 47.8262 50.2751 47.1774C51.1827 46.5287 51.8707 45.6199 52.2477 44.5719C55.0427 43.7666 57.038 41.6003 57.038 39.0958C57.0461 35.8665 53.7583 33.2574 49.7032 33.2574Z" fill="white"/>
</svg>
