<svg width="59" height="57" viewBox="0 0 59 57" fill="none" xmlns="http://www.w3.org/2000/svg">
<path d="M17.1615 44.0043L16.8603 43.7209H16.94C17.0975 43.6728 17.2293 43.5641 17.3066 43.4188C17.3839 43.2735 17.4002 43.1035 17.352 42.9461C17.3039 42.7888 17.1951 42.657 17.0497 42.5798C16.9043 42.5026 16.7342 42.4863 16.5767 42.5344L16.1426 42.6672L15.8058 42.7735L14.9198 41.9854L16.0274 41.6489L16.2843 41.888L16.6831 42.2511C16.8047 42.332 16.9509 42.3674 17.0961 42.3512C17.2412 42.3349 17.376 42.2679 17.4766 42.1621C17.5772 42.0563 17.6372 41.9183 17.6461 41.7726C17.6549 41.6269 17.6119 41.4828 17.5248 41.3656V41.3656L17.4008 41.2505L17.7907 41.1354C17.947 41.0845 18.0772 40.9744 18.1534 40.8288C18.2296 40.6831 18.2457 40.5135 18.1983 40.3561C18.175 40.2773 18.1362 40.2039 18.0843 40.1401C18.0323 40.0764 17.9682 40.0236 17.8956 39.9849C17.823 39.9461 17.7435 39.9222 17.6616 39.9145C17.5796 39.9068 17.497 39.9155 17.4185 39.94L17.0286 40.0639V39.9754C17.047 39.8957 17.0493 39.8132 17.0356 39.7326C17.0219 39.652 16.9923 39.575 16.9487 39.5058C16.9051 39.4367 16.8481 39.3769 16.7813 39.3298C16.7144 39.2828 16.6389 39.2494 16.559 39.2316C16.3969 39.1944 16.2266 39.2229 16.0855 39.3109C15.9444 39.3988 15.8438 39.5391 15.8058 39.7009L15.7084 40.1436L15.6286 40.489L14.5653 40.7989L14.8223 39.6743L15.1502 39.5769L15.6729 39.4087C15.8088 39.3433 15.9166 39.2314 15.9767 39.0932C16.0369 38.9551 16.0454 38.7999 16.0008 38.656C15.9575 38.513 15.8633 38.3907 15.7359 38.3124C15.6086 38.2341 15.4569 38.2051 15.3096 38.231V38.231L15.1502 38.2841L15.2388 37.8857C15.2571 37.806 15.2594 37.7235 15.2457 37.6429C15.232 37.5623 15.2025 37.4852 15.1588 37.4161C15.1152 37.347 15.0583 37.2872 14.9914 37.2401C14.9245 37.193 14.849 37.1596 14.7691 37.1419C14.6894 37.1223 14.6065 37.119 14.5254 37.1322C14.4443 37.1454 14.3667 37.1747 14.2972 37.2185C14.2278 37.2623 14.1678 37.3197 14.121 37.3871C14.0742 37.4546 14.0415 37.5308 14.0248 37.6112L13.9362 38.0096L13.8653 37.9476C13.7478 37.8302 13.5885 37.7643 13.4223 37.7643C13.2561 37.7643 13.0968 37.8302 12.9793 37.9476C12.8618 38.0651 12.7958 38.2243 12.7958 38.3904C12.7958 38.5564 12.8618 38.7157 12.9793 38.8331L13.316 39.143L13.5729 39.3821L13.316 40.5067L12.4299 39.7186L12.5096 39.3821L12.6248 38.8508C12.6463 38.6971 12.6092 38.5409 12.521 38.4132C12.4328 38.2854 12.2998 38.1954 12.1484 38.1609C11.9969 38.1264 11.8381 38.1499 11.7031 38.2268C11.5682 38.3038 11.4671 38.4285 11.4198 38.5763V38.5763V38.7446L11.1185 38.4701C11.0646 38.3975 10.9954 38.3376 10.9159 38.2946C10.8363 38.2516 10.7483 38.2265 10.6581 38.221C10.5678 38.2155 10.4774 38.2299 10.3932 38.263C10.3091 38.2961 10.2332 38.3473 10.1709 38.4128C10.1086 38.4783 10.0614 38.5567 10.0326 38.6423C10.0038 38.728 9.99414 38.819 10.0042 38.9088C10.0143 38.9986 10.0439 39.0851 10.091 39.1623C10.1381 39.2395 10.2015 39.3054 10.2767 39.3555L10.5691 39.63H10.4894C10.3314 39.6791 10.1991 39.7884 10.1211 39.9342C10.0432 40.0801 10.0259 40.2508 10.0729 40.4093C10.0971 40.4873 10.1366 40.5598 10.1889 40.6226C10.2413 40.6853 10.3056 40.7372 10.378 40.775C10.4505 40.8129 10.5297 40.836 10.6112 40.8432C10.6927 40.8503 10.7747 40.8413 10.8527 40.8166L11.2957 40.6838L11.6236 40.5775L12.5096 41.3656L11.402 41.7109L11.1539 41.4718L10.7552 41.0999C10.6335 41.0244 10.4894 40.9933 10.3474 41.0119C10.2054 41.0305 10.0742 41.0977 9.97604 41.202C9.87793 41.3063 9.81897 41.4413 9.80917 41.5841C9.79938 41.7269 9.83936 41.8687 9.92231 41.9854L10.0463 42.1094L9.66534 42.2245C9.58644 42.2478 9.51296 42.2865 9.44918 42.3384C9.3854 42.3904 9.33258 42.4544 9.29383 42.5269C9.25507 42.5995 9.23116 42.679 9.22344 42.7608C9.21572 42.8427 9.22436 42.9252 9.24889 43.0037C9.29798 43.1616 9.40734 43.2938 9.55328 43.3717C9.69923 43.4496 9.87002 43.4669 10.0286 43.4199L10.4185 43.2959V43.3845C10.3821 43.5453 10.4111 43.7141 10.4992 43.8536C10.5872 43.993 10.7272 44.0919 10.8881 44.1283C11.0491 44.1647 11.218 44.1357 11.3575 44.0477C11.4971 43.9596 11.596 43.8198 11.6324 43.659L11.7299 43.2074L11.8097 42.8709L12.9173 42.5256L12.6603 43.6501L12.3236 43.7564L11.8097 43.9246C11.6716 43.9853 11.5609 44.0948 11.4987 44.2321C11.4366 44.3694 11.4274 44.5247 11.4729 44.6684C11.5179 44.8127 11.6134 44.9361 11.742 45.0157C11.8706 45.0954 12.0235 45.1261 12.1729 45.1023V45.1023L12.3324 45.058L12.2527 45.4476C12.2331 45.5279 12.2297 45.6113 12.2427 45.6929C12.2558 45.7745 12.2851 45.8527 12.3289 45.9228C12.3726 45.9929 12.43 46.0536 12.4975 46.1012C12.5651 46.1489 12.6415 46.1826 12.7223 46.2003C12.8831 46.2348 13.0511 46.205 13.1902 46.1173C13.3294 46.0296 13.4286 45.8909 13.4666 45.731L13.5552 45.3325L13.6261 45.3945C13.6839 45.4534 13.7528 45.5002 13.8289 45.5321C13.9049 45.5641 13.9866 45.5805 14.0691 45.5805C14.1517 45.5805 14.2334 45.5641 14.3094 45.5321C14.3855 45.5002 14.4544 45.4534 14.5122 45.3945C14.6291 45.2767 14.6946 45.1176 14.6946 44.9518C14.6946 44.7859 14.6291 44.6268 14.5122 44.509L14.1755 44.1991L13.9185 43.96L14.1755 42.8355L15.0172 43.6147L14.9463 43.96L14.8223 44.4825C14.8075 44.6317 14.8475 44.7813 14.9347 44.9034C15.0219 45.0256 15.1504 45.1119 15.2965 45.1465C15.4426 45.1811 15.5962 45.1616 15.729 45.0916C15.8618 45.0216 15.9647 44.9058 16.0185 44.7658V44.7658V44.5976L16.3198 44.8721C16.4376 44.9889 16.5969 45.0544 16.7628 45.0544C16.9288 45.0544 17.088 44.9889 17.2059 44.8721C17.3138 44.7505 17.3696 44.5914 17.3613 44.4291C17.353 44.2668 17.2813 44.1143 17.1615 44.0043V44.0043Z" fill="white"/>
<path d="M45.3672 43.8806L45.0659 43.6061H45.1457C45.3037 43.557 45.436 43.4477 45.5139 43.3018C45.5919 43.156 45.6092 42.9854 45.5621 42.8268C45.5379 42.7488 45.4985 42.6763 45.4461 42.6135C45.3938 42.5508 45.3295 42.4989 45.257 42.4611C45.1846 42.4232 45.1053 42.4001 45.0239 42.3929C44.9424 42.3858 44.8603 42.3948 44.7824 42.4195L44.3482 42.5523L44.0115 42.6586L43.1254 41.8705L44.233 41.534L44.49 41.7731L44.8798 42.1362C45.0014 42.2171 45.1477 42.2525 45.2929 42.2363C45.438 42.22 45.5728 42.153 45.6734 42.0472C45.774 41.9414 45.834 41.8035 45.8428 41.6577C45.8516 41.512 45.8087 41.3679 45.7216 41.2507V41.2507L45.5976 41.1356L45.9786 41.0116C46.1366 40.9625 46.2689 40.8533 46.3468 40.7074C46.4248 40.5616 46.4421 40.3909 46.3951 40.2324C46.3708 40.1543 46.3314 40.0819 46.279 40.0191C46.2267 39.9563 46.1624 39.9045 46.0899 39.8667C46.0175 39.8288 45.9382 39.8056 45.8568 39.7985C45.7753 39.7914 45.6933 39.8004 45.6153 39.8251L45.2254 39.9402V39.8605C45.2451 39.7814 45.2487 39.6991 45.2361 39.6186C45.2235 39.538 45.1949 39.4609 45.1519 39.3915C45.109 39.3222 45.0526 39.2622 44.9861 39.215C44.9196 39.1678 44.8443 39.1344 44.7646 39.1167C44.6038 39.0793 44.4346 39.1066 44.2937 39.1927C44.1528 39.2789 44.0514 39.4169 44.0115 39.5771L43.914 40.0287L43.8343 40.3741L42.7267 40.7105L42.9925 39.586L43.3204 39.4797L43.8431 39.3203C43.9786 39.2545 44.086 39.1422 44.1457 39.004C44.2053 38.8657 44.2134 38.7106 44.1683 38.567C44.1232 38.4233 44.0281 38.3005 43.9001 38.221C43.7721 38.1415 43.6199 38.1106 43.471 38.1338V38.1338L43.3026 38.1869L43.4001 37.7885C43.4184 37.7088 43.4208 37.6263 43.4071 37.5457C43.3933 37.4651 43.3638 37.3881 43.3202 37.3189C43.2765 37.2498 43.2196 37.19 43.1527 37.1429C43.0859 37.0959 43.0103 37.0625 42.9305 37.0447C42.8507 37.0251 42.7678 37.0218 42.6867 37.035C42.6056 37.0482 42.528 37.0776 42.4586 37.1214C42.3891 37.1652 42.3292 37.2225 42.2824 37.2899C42.2356 37.3574 42.2029 37.4336 42.1862 37.514L42.0887 37.9036L42.0267 37.8505C41.9685 37.7923 41.8994 37.7462 41.8234 37.7147C41.7474 37.6833 41.6659 37.6671 41.5836 37.6671C41.5014 37.6671 41.4199 37.6833 41.3439 37.7147C41.2678 37.7462 41.1988 37.7923 41.1406 37.8505C41.0824 37.9086 41.0363 37.9776 41.0048 38.0536C40.9733 38.1296 40.9571 38.211 40.9571 38.2932C40.9571 38.3754 40.9733 38.4569 41.0048 38.5328C41.0363 38.6088 41.0824 38.6778 41.1406 38.736L41.4773 39.0547L41.7343 39.2938L41.4862 40.4183L40.6001 39.6303L40.6798 39.2938L40.795 38.7625C40.8074 38.6117 40.7648 38.4616 40.6753 38.3396C40.5858 38.2176 40.4553 38.132 40.3077 38.0984C40.1611 38.0655 40.0076 38.0868 39.8756 38.1585C39.7436 38.2301 39.6421 38.3472 39.59 38.488V38.488V38.6562L39.2887 38.3817C39.2348 38.3092 39.1656 38.2493 39.0861 38.2063C39.0065 38.1633 38.9185 38.1381 38.8283 38.1327C38.738 38.1272 38.6476 38.1415 38.5634 38.1747C38.4793 38.2078 38.4034 38.2589 38.3411 38.3245C38.2788 38.39 38.2316 38.4683 38.2028 38.554C38.174 38.6397 38.1643 38.7306 38.1744 38.8205C38.1845 38.9103 38.2141 38.9968 38.2612 39.074C38.3083 39.1512 38.3717 39.2171 38.4469 39.2672L38.7393 39.5417H38.6596C38.5016 39.5908 38.3693 39.7001 38.2913 39.8459C38.2134 39.9918 38.1961 40.1624 38.2431 40.3209C38.2674 40.399 38.3068 40.4715 38.3591 40.5342C38.4115 40.597 38.4758 40.6488 38.5482 40.6867C38.6207 40.7245 38.7 40.7477 38.7814 40.7548C38.8629 40.762 38.9449 40.7529 39.0229 40.7283L39.4571 40.5954L39.7938 40.4892L40.6798 41.2773L39.5723 41.6226L39.3242 41.3746L38.9254 41.0116C38.802 40.9247 38.6512 40.8857 38.5011 40.9021C38.351 40.9184 38.2121 40.9888 38.1102 41.1002C38.0111 41.2145 37.9565 41.3606 37.9565 41.5119C37.9565 41.6632 38.0111 41.8093 38.1102 41.9236V41.9236L38.2343 42.0476L37.8533 42.1627C37.7753 42.1866 37.7028 42.2255 37.6399 42.2774C37.577 42.3292 37.5249 42.3929 37.4867 42.4648C37.4484 42.5368 37.4247 42.6156 37.4169 42.6967C37.4091 42.7778 37.4174 42.8596 37.4412 42.9375C37.4651 43.0154 37.5041 43.0879 37.5559 43.1507C37.6078 43.2136 37.6716 43.2656 37.7436 43.3038C37.8156 43.3421 37.8944 43.3658 37.9755 43.3736C38.0567 43.3814 38.1386 43.3731 38.2166 43.3493L38.6064 43.2342V43.3227C38.5881 43.4024 38.5857 43.4849 38.5995 43.5654C38.6132 43.646 38.6427 43.7231 38.6864 43.7922C38.73 43.8614 38.7869 43.9212 38.8538 43.9683C38.9207 44.0153 38.9962 44.0487 39.0761 44.0665C39.2369 44.1011 39.4049 44.0713 39.544 43.9835C39.6831 43.8958 39.7823 43.7571 39.8204 43.5972L39.9178 43.1456L39.9976 42.8091L41.0963 42.4638L40.8482 43.5883L40.5115 43.6946L39.9887 43.854C39.8507 43.9147 39.7399 44.0241 39.6778 44.1614C39.6156 44.2987 39.6065 44.4541 39.652 44.5978C39.6953 44.7432 39.7905 44.8676 39.9195 44.9476C40.0485 45.0276 40.2024 45.0575 40.352 45.0317L40.5115 44.9785L40.4229 45.377C40.4046 45.4567 40.4022 45.5392 40.4159 45.6198C40.4296 45.7003 40.4592 45.7774 40.5028 45.8466C40.5465 45.9157 40.6034 45.9755 40.6703 46.0226C40.7371 46.0696 40.8127 46.103 40.8925 46.1208C41.0546 46.158 41.2249 46.1294 41.366 46.0415C41.5072 45.9535 41.6077 45.8133 41.6457 45.6515L41.7343 45.2619L41.7963 45.3239C41.9138 45.4413 42.0732 45.5073 42.2394 45.5073C42.4055 45.5073 42.5649 45.4413 42.6824 45.3239C42.7999 45.2064 42.8659 45.0472 42.8659 44.8811C42.8659 44.7151 42.7999 44.5558 42.6824 44.4384L42.3457 44.1285L42.0887 43.8894L42.3457 42.756L43.1874 43.5441L43.1077 43.8806L42.9925 44.4118C42.9806 44.5601 43.0225 44.7078 43.1106 44.8278C43.1986 44.9477 43.3269 45.0321 43.472 45.0654C43.6171 45.0987 43.7693 45.0787 43.9009 45.0091C44.0325 44.9395 44.1346 44.825 44.1887 44.6863V44.6863V44.5092L44.49 44.7837C44.5477 44.8426 44.6167 44.8894 44.6927 44.9214C44.7688 44.9533 44.8505 44.9698 44.933 44.9698C45.0155 44.9698 45.0972 44.9533 45.1733 44.9214C45.2494 44.8894 45.3183 44.8426 45.376 44.7837C45.4349 44.7239 45.4815 44.6531 45.5129 44.5753C45.5443 44.4975 45.5601 44.4142 45.5593 44.3303C45.5584 44.2464 45.5411 44.1635 45.5081 44.0863C45.4751 44.0091 45.4273 43.9392 45.3672 43.8806Z" fill="white"/>
<path d="M32.7395 49.2107L32.3318 48.83H32.447C32.6251 48.7313 32.7637 48.5744 32.8396 48.3856C32.9154 48.1968 32.9239 47.9876 32.8636 47.7933C32.8033 47.599 32.6779 47.4314 32.5084 47.3186C32.3389 47.2058 32.1358 47.1548 31.9331 47.1742L31.3306 47.369L30.861 47.5106L29.6914 46.4215L31.2154 45.9522L31.5787 46.2798L32.1281 46.7934C32.3004 46.9106 32.5087 46.9634 32.7161 46.9423C32.9236 46.9213 33.117 46.8278 33.2622 46.6783C33.3972 46.5185 33.4712 46.3162 33.4712 46.1072C33.4712 45.8981 33.3972 45.6958 33.2622 45.536V45.536L33.0939 45.3678L33.6255 45.2084C33.7573 45.1974 33.8849 45.1571 33.9991 45.0904C34.1133 45.0237 34.211 44.9323 34.2853 44.8229C34.3595 44.7136 34.4083 44.589 34.428 44.4583C34.4478 44.3277 34.438 44.1942 34.3995 44.0678C34.3609 43.9414 34.2945 43.8252 34.2052 43.7278C34.1158 43.6304 34.0058 43.5542 33.8832 43.5047C33.7605 43.4553 33.6284 43.434 33.4964 43.4422C33.3644 43.4505 33.236 43.4882 33.1205 43.5525L32.5799 43.7208V43.6057C32.5808 43.405 32.5133 43.2099 32.3887 43.0525C32.264 42.8951 32.0895 42.7847 31.8938 42.7394C31.6981 42.6941 31.4928 42.7166 31.3116 42.8032C31.1304 42.8898 30.984 43.0354 30.8964 43.2161L30.7546 43.8359L30.6483 44.3141L29.1154 44.7834L29.4698 43.2249L29.9306 43.0832L30.6572 42.853C30.845 42.7612 30.9943 42.606 31.0786 42.4147C31.1629 42.2235 31.1768 42.0087 31.1179 41.8082C31.0514 41.6104 30.9172 41.4424 30.7389 41.3339C30.5606 41.2253 30.3496 41.1832 30.1432 41.2149V41.2149L29.9129 41.2857L30.0369 40.7367C30.0803 40.5154 30.0375 40.2859 29.9173 40.095C29.7971 39.9041 29.6085 39.7663 29.3901 39.7096C29.1673 39.6638 28.9354 39.7053 28.7424 39.8257C28.5494 39.946 28.4101 40.1359 28.3534 40.356L28.2293 40.905L28.1407 40.8164C27.9812 40.672 27.7745 40.5906 27.5592 40.5873C27.344 40.5841 27.1349 40.6592 26.9711 40.7987C26.8224 40.9685 26.7443 41.1886 26.7525 41.4141C26.7607 41.6395 26.8548 41.8533 27.0154 42.0118L27.485 42.4457L27.8395 42.7734L27.485 44.3406L26.3065 43.2515L26.4217 42.7822L26.5901 42.0473C26.5851 41.8505 26.5146 41.6609 26.3898 41.5086C26.265 41.3563 26.093 41.25 25.9009 41.2063C25.7088 41.1626 25.5076 41.1841 25.3291 41.2675C25.1507 41.3508 25.0051 41.4912 24.9154 41.6665L24.8711 41.8967L24.4546 41.516C24.3793 41.4069 24.2805 41.3162 24.1654 41.2504C24.0503 41.1846 23.9218 41.1454 23.7896 41.1358C23.6573 41.1262 23.5246 41.1464 23.4012 41.1949C23.2778 41.2434 23.1669 41.3189 23.0766 41.4159C22.9863 41.513 22.9189 41.629 22.8795 41.7555C22.84 41.882 22.8295 42.0157 22.8486 42.1469C22.8678 42.278 22.9161 42.4031 22.9901 42.5131C23.0641 42.6231 23.1619 42.715 23.2761 42.7822L23.6926 43.163H23.5774C23.4438 43.1714 23.3139 43.21 23.1974 43.2758C23.0808 43.3416 22.9807 43.4329 22.9046 43.5429C22.8285 43.6529 22.7782 43.7787 22.7577 43.9109C22.7372 44.0431 22.7469 44.1782 22.7861 44.3061C22.8254 44.434 22.8931 44.5513 22.9842 44.6493C23.0753 44.7473 23.1874 44.8234 23.3121 44.8719C23.4369 44.9204 23.571 44.94 23.7044 44.9293C23.8379 44.9186 23.9671 44.8777 24.0825 44.8099L24.6939 44.624L25.1546 44.4823L26.3242 45.5715L24.8002 46.0408L24.4458 45.7131L23.8964 45.1995C23.7237 45.1089 23.5258 45.0778 23.3336 45.1109C23.1414 45.1441 22.9655 45.2398 22.8332 45.3831C22.7009 45.5264 22.6196 45.7093 22.602 45.9035C22.5844 46.0976 22.6313 46.2922 22.7357 46.4569L22.9129 46.6251L22.3724 46.7846C22.1943 46.8832 22.0557 47.0401 21.9798 47.2289C21.904 47.4177 21.8955 47.6269 21.9558 47.8212C22.0161 48.0155 22.1415 48.1832 22.311 48.296C22.4805 48.4087 22.6836 48.4597 22.8863 48.4404L23.4179 48.2721V48.3873C23.3724 48.6111 23.4152 48.8439 23.5374 49.037C23.6596 49.23 23.8517 49.3684 24.0736 49.4233C24.2951 49.4666 24.5248 49.4238 24.7158 49.3037C24.9068 49.1836 25.0448 48.9952 25.1015 48.7769L25.2432 48.157L25.3496 47.6789L26.8825 47.2096L26.5281 48.768L26.0673 48.9097L25.3496 49.1311C25.1826 49.234 25.0545 49.3895 24.9855 49.5731C24.9164 49.7566 24.9103 49.9579 24.9681 50.1453C25.0259 50.3327 25.1443 50.4957 25.3047 50.6086C25.4652 50.7215 25.6586 50.778 25.8546 50.7692L26.085 50.6983L25.961 51.2385C25.903 51.3582 25.8727 51.4893 25.8724 51.6223C25.872 51.7552 25.9017 51.8865 25.9591 52.0065C26.0165 52.1264 26.1002 52.2319 26.204 52.3151C26.3077 52.3983 26.4289 52.4571 26.5585 52.4871C26.6881 52.5171 26.8229 52.5175 26.9527 52.4884C27.0825 52.4592 27.2041 52.4013 27.3084 52.3187C27.4127 52.2362 27.4971 52.1313 27.5553 52.0117C27.6134 51.8922 27.644 51.7611 27.6445 51.6281L27.7686 51.0791L27.866 51.1588C28.039 51.2534 28.2385 51.2877 28.4331 51.2562C28.6277 51.2247 28.8062 51.1292 28.9405 50.9849C29.0747 50.8407 29.1569 50.6558 29.1742 50.4595C29.1914 50.2633 29.1426 50.0669 29.0356 49.9014L28.566 49.4675L28.2116 49.1311L28.566 47.5726L29.7445 48.6618L29.6382 49.1311L29.4698 49.866C29.4635 50.0671 29.5258 50.2643 29.6466 50.4253C29.7674 50.5862 29.9394 50.7013 30.1344 50.7515C30.3382 50.7932 30.5502 50.762 30.7332 50.6632C30.9163 50.5645 31.0588 50.4045 31.1357 50.2113V50.2113L31.1888 49.9811L31.6053 50.3619C31.7752 50.5104 31.9954 50.5885 32.221 50.5803C32.4466 50.5721 32.6606 50.4781 32.8192 50.3176C32.9341 50.1516 32.9889 49.9514 32.9744 49.7501C32.9599 49.5489 32.877 49.3585 32.7395 49.2107V49.2107Z" fill="white"/>
<path d="M24.4187 27.4371C24.324 26.7267 24.0581 26.0499 23.6439 25.4649C23.2297 24.8798 22.6796 24.404 22.0408 24.0783C21.402 23.7526 20.6936 23.5867 19.9765 23.5949C19.2594 23.6031 18.555 23.7852 17.9238 24.1254C17.7282 22.8347 17.0878 21.6527 16.1133 20.7834C15.1387 19.9141 13.8911 19.412 12.5857 19.3637C11.2802 19.3154 9.99887 19.724 8.96269 20.519C7.9265 21.3139 7.20046 22.4454 6.90988 23.7181C6.45111 23.5904 5.97725 23.5249 5.50102 23.5233C4.82678 23.4937 4.15429 23.6125 3.53106 23.8713C2.90783 24.1301 2.34909 24.5225 1.89436 25.0209C1.43962 25.5192 1.09999 26.1113 0.899469 26.7553C0.698951 27.3993 0.642452 28.0794 0.733951 28.7476C2.07193 36.3184 25.2428 36.1147 24.4187 27.4371Z" fill="white"/>
<path d="M45.8549 20.84C39.9537 20.84 33.6537 18.8565 32.8739 14.4291C32.7298 13.6487 32.7624 12.846 32.9694 12.0798C33.1764 11.3137 33.5525 10.6036 34.0701 10.0018C34.3377 9.68003 34.6343 9.38362 34.9562 9.11629C34.3992 7.75913 33.4242 6.61446 32.1726 5.8481C30.921 5.08174 29.4577 4.73351 27.9948 4.85386C26.5318 4.97421 25.1452 5.55686 24.0359 6.51745C22.9265 7.47803 22.152 8.76665 21.8246 10.1966C21.2468 10.041 20.6508 9.96353 20.0524 9.96633C18.3335 9.96498 16.6758 10.6038 15.4028 11.758C14.1298 12.9123 13.3329 14.4992 13.1676 16.2089C12.114 15.6195 10.9244 15.3154 9.71697 15.3269C8.5095 15.3383 7.32598 15.6649 6.28373 16.2743C5.24147 16.8836 4.37666 17.7546 3.77501 18.8008C3.17335 19.8471 2.85575 21.0323 2.85367 22.239C2.84044 22.4572 2.84044 22.6761 2.85367 22.8943C3.66334 22.5271 4.54305 22.3398 5.43215 22.3453H6.04355C6.56148 21.0886 7.4457 20.0167 8.58131 19.2688C9.71692 18.5209 11.0514 18.1317 12.4113 18.1518C13.7712 18.1718 15.0935 18.6002 16.2066 19.3812C17.3196 20.1623 18.1718 21.2598 18.6524 22.5312C19.4183 22.3625 20.2107 22.3535 20.9802 22.505C21.7497 22.6564 22.4796 22.965 23.1242 23.4113C23.7688 23.8577 24.3143 24.4323 24.7265 25.099C25.1386 25.7658 25.4086 26.5104 25.5195 27.2862C25.5979 28.0731 25.5064 28.8677 25.2511 29.6162C24.9958 30.3647 24.5827 31.0498 24.0398 31.6251C23.164 32.5319 22.1156 33.2544 20.9562 33.7502C23.0941 35.1926 25.6252 35.9409 28.2043 35.893C32.7499 35.893 36.5866 33.8122 37.8271 30.9521C38.6736 31.5852 39.6541 32.0161 40.6932 32.2116C41.7324 32.4071 42.8025 32.3621 43.8215 32.0799C44.8405 31.7978 45.7812 31.286 46.5715 30.584C47.3617 29.882 47.9805 29.0083 48.3803 28.03C51.9246 27.056 54.4144 24.4881 54.4144 21.5395C54.4122 20.7848 54.2491 20.0392 53.936 19.3524C51.3653 20.3707 48.62 20.8761 45.8549 20.84V20.84Z" fill="white"/>
<path d="M57.71 12.9065C57.6062 12.1998 57.3345 11.5282 56.9177 10.948C56.5009 10.3678 55.951 9.89581 55.3142 9.57155C54.6774 9.24728 53.9721 9.08018 53.2573 9.08422C52.5426 9.08827 51.8393 9.26335 51.2062 9.59481C51.0058 8.30891 50.3638 7.13277 49.3905 6.26815C48.4172 5.40353 47.1731 4.9043 45.8717 4.85614C44.5703 4.80797 43.2927 5.21386 42.258 6.00416C41.2234 6.79446 40.4961 7.91991 40.2011 9.18747C39.7411 9.06689 39.2678 9.00442 38.7922 9.00153C38.1196 8.97552 37.4495 9.09738 36.8292 9.3585C36.2089 9.61962 35.6535 10.0136 35.2022 10.5127C34.7509 11.0118 34.4148 11.6038 34.2175 12.2469C34.0203 12.8901 33.9667 13.5686 34.0606 14.2347C35.3631 21.7878 58.534 21.5841 57.71 12.9065Z" fill="white"/>
</svg>
