<svg width="20" height="16" viewBox="0 0 20 16" fill="none" xmlns="http://www.w3.org/2000/svg">
<path d="M18.125 0.685547C19.1406 0.685547 20 1.54492 20 2.56055C20 3.18555 19.6875 3.73242 19.2188 4.08398L10.7422 10.4512C10.2734 10.8027 9.6875 10.8027 9.21875 10.4512L0.742188 4.08398C0.273438 3.73242 0 3.18555 0 2.56055C0 1.54492 0.820312 0.685547 1.875 0.685547H18.125ZM8.47656 11.4668C9.375 12.1309 10.5859 12.1309 11.4844 11.4668L20 5.06055V13.1855C20 14.5918 18.8672 15.6855 17.5 15.6855H2.5C1.09375 15.6855 0 14.5918 0 13.1855V5.06055L8.47656 11.4668Z" fill="#3E3232" fill-opacity="0.75"/>
</svg>
