<svg width="58" height="57" viewBox="0 0 58 57" fill="none" xmlns="http://www.w3.org/2000/svg">
<path d="M28.5303 11.3047C25.1276 11.299 21.7996 12.3024 18.9672 14.1881C16.1347 16.0738 13.9251 18.757 12.6176 21.8985C11.3102 25.04 10.9636 28.4987 11.6218 31.8371C12.28 35.1756 13.9134 38.2439 16.3155 40.654C18.7175 43.0641 21.7802 44.7079 25.1165 45.3773C28.4527 46.0468 31.9125 45.7119 35.0584 44.4151C38.2043 43.1182 40.8949 40.9176 42.7902 38.0915C44.6854 35.2655 45.7 31.9409 45.7058 28.5382C45.7096 26.2789 45.2683 24.0409 44.4073 21.9521C43.5462 19.8633 42.2821 17.9646 40.6872 16.3643C39.0923 14.764 37.1979 13.4935 35.112 12.6254C33.0261 11.7573 30.7896 11.3085 28.5303 11.3047Z" fill="white"/>
<path d="M57.0387 28.5387L47.3678 20.744L48.7121 8.3653L36.2657 9.67084L28.4613 0L20.6569 9.67084L8.31693 8.32661L9.67085 20.7053L0 28.5L9.67085 36.3044L8.31693 48.6734L20.6956 47.3291L28.5 57L36.3044 47.3291L48.6734 48.6831L47.3292 36.2754L57.0387 28.5387ZM42.5324 42.5904C40.6898 44.4242 38.5762 45.9638 36.2657 47.1551C31.2351 48.775 25.8229 48.775 20.7923 47.1551C16.0905 44.7691 12.2601 40.9623 9.84493 36.2754C8.22697 31.2445 8.22697 25.8329 9.84493 20.802C11.0432 18.4685 12.5961 16.3349 14.4483 14.4773C16.3051 12.6104 18.4464 11.0501 20.7923 9.85459C25.8209 8.22152 31.2372 8.22152 36.2657 9.85459C38.6054 11.0429 40.7404 12.5969 42.5904 14.4579C44.4314 16.3212 45.9684 18.462 47.1454 20.802C48.7719 25.8316 48.7719 31.2458 47.1454 36.2754C45.9473 38.592 44.3977 40.7092 42.5518 42.5517L42.5324 42.5904Z" fill="white"/>
</svg>
