<svg width="58" height="57" viewBox="0 0 58 57" fill="none" xmlns="http://www.w3.org/2000/svg">
<path d="M47.2543 15.6949C46.5918 15.6976 45.9304 15.7462 45.2746 15.8402C44.5418 14.4318 43.4292 13.2565 42.0625 12.4474C40.6959 11.6382 39.1299 11.2275 37.5417 11.2618C37.1636 11.2654 36.786 11.2897 36.4105 11.3345C36.1458 9.5737 35.2739 7.96064 33.9454 6.77406C32.617 5.58748 30.9155 4.90191 29.135 4.83583C27.3545 4.76975 25.6068 5.32731 24.194 6.41216C22.7811 7.49701 21.7919 9.04101 21.3972 10.7773C20.77 10.609 20.1236 10.5222 19.4741 10.5189C17.5732 10.5198 15.7405 11.2269 14.3323 12.5029C12.924 13.7788 12.0408 15.5324 11.8544 17.4229C10.8342 16.8483 9.69564 16.5154 8.52644 16.4498C7.35724 16.3842 6.18857 16.5876 5.11043 17.0444C4.03229 17.5012 3.07344 18.1992 2.30774 19.0846C1.54203 19.9701 0.989902 21.0193 0.693863 22.1515C0.397823 23.2838 0.365775 24.4688 0.600187 25.6154C0.834598 26.7619 1.32921 27.8394 2.04594 28.7649C2.76267 29.6904 3.68239 30.4391 4.73427 30.9534C5.78615 31.4678 6.94213 31.7339 8.11317 31.7315C8.49196 31.7307 8.87013 31.701 9.24441 31.6427C9.61175 32.6075 10.1706 33.4881 10.8873 34.2315C11.6039 34.9749 12.4637 35.5658 13.4148 35.9686C14.3659 36.3714 15.3886 36.5779 16.4216 36.5755C17.4546 36.5731 18.4764 36.3619 19.4256 35.9547C21.4376 37.9169 24.7587 39.1846 28.516 39.1846C33.542 39.1846 37.7842 36.8914 39.1578 33.7341C40.0924 34.434 41.1752 34.9104 42.3229 35.1265C43.4706 35.3426 44.6527 35.2928 45.7781 34.9808C46.9035 34.6689 47.9423 34.1031 48.8146 33.327C49.6869 32.5509 50.3694 31.5852 50.8097 30.5042C54.7125 29.4221 57.484 26.6202 57.484 23.3337C57.484 19.1267 52.9105 15.6949 47.2543 15.6949Z" fill="white"/>
<path d="M17.5184 46.1452C17.389 46.9683 16.9392 47.7068 16.2672 48.1999C15.5951 48.693 14.7553 48.9007 13.9307 48.7777C12.3632 48.4224 11.442 46.662 11.8541 44.8452C12.2662 43.0284 15.9831 39.8792 15.9831 39.8792C15.9831 39.8792 17.9305 44.3203 17.5184 46.1452Z" fill="white"/>
<path d="M30.9473 48.8826C30.414 51.1759 28.3858 52.6617 26.4142 52.2095C24.4426 51.7573 23.2629 49.5286 23.7962 47.2354C24.3295 44.9421 28.9999 40.9612 28.9999 40.9612C28.9999 40.9612 31.4725 46.5894 30.9473 48.8826Z" fill="white"/>
<path d="M43.5444 46.1452C43.5107 46.5649 43.387 46.9723 43.1816 47.3399C42.9762 47.7074 42.694 48.0264 42.3542 48.2752C42.0144 48.524 41.625 48.6968 41.2124 48.7817C40.7998 48.8666 40.3737 48.8617 39.9632 48.7674C39.5527 48.673 39.1673 48.4914 38.8333 48.2349C38.4993 47.9784 38.2245 47.6529 38.0276 47.2808C37.8307 46.9086 37.7163 46.4984 37.6923 46.0782C37.6682 45.6579 37.735 45.2374 37.8882 44.8452C38.3003 43.0284 42.0092 39.8792 42.0092 39.8792C42.0092 39.8792 43.9565 44.3203 43.5444 46.1452Z" fill="white"/>
</svg>
