<svg width="88" height="25" viewBox="0 0 88 25" fill="none" xmlns="http://www.w3.org/2000/svg">
<g clip-path="url(#clip0_312_1493)">
<path d="M12.7972 22.1086C10.9916 22.1086 9.26257 22.1012 8.66011 22.0846C8.40065 22.0765 8.14293 22.0391 7.89184 21.9732C7.24847 21.7949 6.67629 21.4214 6.25428 20.9041C5.83227 20.3868 5.58124 19.7513 5.53585 19.0852C5.49045 18.4192 5.65293 17.7555 6.00086 17.1857C6.34878 16.6159 6.86499 16.1682 7.47823 15.9044C7.31335 15.0715 7.33127 14.2129 7.53073 13.3877C7.81021 12.2577 8.43931 11.2448 9.32834 10.4934C10.2174 9.74196 11.3209 9.29042 12.4817 9.20312C13.6424 9.11582 14.8011 9.39721 15.7925 10.0072C16.784 10.6172 17.5575 11.5246 18.0028 12.6C18.1281 12.9004 18.2663 12.9317 18.5436 12.9934L18.7057 13.0321C19.8628 13.3474 20.8519 14.1005 21.4638 15.132C22.0756 16.1635 22.2623 17.3926 21.9842 18.5592C21.7911 19.389 21.3695 20.1481 20.7671 20.7505C20.1647 21.3529 19.4056 21.7745 18.5758 21.9676C18.254 22.041 17.9256 22.0814 17.5957 22.0883C16.7924 22.0994 14.751 22.1086 12.7972 22.1086ZM12.8801 11.0331C12.6985 11.0331 12.5172 11.0463 12.3375 11.0727C11.8418 11.1481 11.3668 11.324 10.9416 11.5896C10.5163 11.8552 10.1499 12.2049 9.8647 12.6172C9.5795 13.0296 9.38159 13.4959 9.28312 13.9875C9.18465 14.4791 9.18769 14.9856 9.29205 15.476C9.38767 15.9006 9.33123 16.3452 9.13258 16.7324C8.93393 17.1196 8.60567 17.4248 8.20505 17.5947C7.89341 17.7265 7.64121 17.9683 7.49661 18.2742C7.352 18.5801 7.32513 18.9285 7.42111 19.2529C7.48415 19.4768 7.60368 19.6807 7.76822 19.8451C7.93276 20.0094 8.13679 20.1288 8.36073 20.1916C8.47561 20.2226 8.59369 20.2402 8.71262 20.2441C9.94886 20.2773 16.0315 20.2717 17.5561 20.2441C17.7598 20.24 17.9626 20.215 18.1613 20.1695C18.6523 20.0519 19.1014 19.8011 19.459 19.4447C19.8166 19.0882 20.0688 18.64 20.1879 18.1493C20.3572 17.447 20.2471 16.7064 19.8806 16.0839C19.5142 15.4613 18.9201 15.0055 18.2239 14.8127L18.1392 14.7934C17.7293 14.7283 17.3436 14.557 17.0204 14.2967C16.6972 14.0363 16.4477 13.696 16.2968 13.3094C16.016 12.6347 15.5416 12.0585 14.9335 11.6533C14.3254 11.2482 13.6108 11.0324 12.8801 11.0331ZM2.10031 15.5626C1.89834 15.5629 1.70184 15.4969 1.54108 15.3746C1.38031 15.2523 1.26419 15.0806 1.21059 14.8859C1.15698 14.6912 1.16886 14.4842 1.24441 14.2969C1.31995 14.1096 1.45496 13.9523 1.62867 13.8492L4.12417 12.3642C4.2193 12.3242 4.29825 12.2535 4.34836 12.1633C4.39847 12.0731 4.41684 11.9687 4.40053 11.8668C4.32011 11.6006 4.25854 11.3291 4.21629 11.0543H0.921191C0.676876 11.0543 0.442567 10.9572 0.269811 10.7845C0.0970538 10.6117 0 10.3774 0 10.1331C0 9.88878 0.0970538 9.65447 0.269811 9.48172C0.442567 9.30896 0.676876 9.21191 0.921191 9.21191H4.21445C4.28239 8.76955 4.40204 8.33669 4.57095 7.92224L1.73552 6.2641C1.62696 6.20521 1.53134 6.12509 1.45436 6.02851C1.37738 5.93193 1.32061 5.82085 1.28743 5.70189C1.25424 5.58292 1.24531 5.4585 1.26118 5.33601C1.27705 5.21353 1.31738 5.09549 1.37978 4.9889C1.44219 4.88232 1.52539 4.78938 1.62444 4.7156C1.72349 4.64182 1.83636 4.58871 1.95634 4.55942C2.07633 4.53014 2.20098 4.52529 2.32288 4.54515C2.44478 4.56502 2.56144 4.60919 2.66593 4.67504L5.52162 6.34608C5.78439 6.03095 6.07785 5.74274 6.39767 5.48569L4.70729 2.62908C4.64559 2.52498 4.605 2.40975 4.58784 2.28997C4.57067 2.17019 4.57727 2.0482 4.60725 1.93096C4.6678 1.6942 4.81993 1.49119 5.03016 1.36659C5.2404 1.24199 5.49152 1.206 5.72828 1.26655C5.96504 1.32711 6.16805 1.47923 6.29265 1.68946L7.99041 4.55345C8.38461 4.39911 8.79407 4.28702 9.21191 4.21905V0.921191C9.21191 0.676876 9.30896 0.442567 9.48172 0.269811C9.65448 0.0970538 9.88878 0 10.1331 0C10.3774 0 10.6117 0.0970538 10.7845 0.269811C10.9572 0.442567 11.0543 0.676876 11.0543 0.921191V4.21629C11.4917 4.28449 11.9196 4.40383 12.3292 4.57187L14.0085 1.70236C14.0697 1.5979 14.1508 1.50651 14.2473 1.4334C14.3438 1.3603 14.4537 1.30691 14.5708 1.27628C14.6879 1.24566 14.8099 1.2384 14.9298 1.25492C15.0497 1.27144 15.1652 1.31142 15.2697 1.37257C15.3741 1.43373 15.4655 1.51485 15.5386 1.61133C15.6117 1.7078 15.6651 1.81772 15.6957 1.93483C15.7264 2.05193 15.7336 2.17392 15.7171 2.29383C15.7006 2.41374 15.6606 2.52922 15.5994 2.63368L13.9017 5.53175C14.295 5.78416 14.5622 6.45294 15.0716 6.19224L17.5026 4.58016C17.6033 4.50717 17.7178 4.45533 17.8391 4.42777C17.9604 4.40021 18.086 4.39751 18.2084 4.41982C18.3308 4.44213 18.4474 4.489 18.5511 4.55759C18.6549 4.62618 18.7437 4.71508 18.8122 4.81892C18.8807 4.92277 18.9274 5.03941 18.9496 5.1618C18.9718 5.2842 18.969 5.40983 18.9413 5.5311C18.9136 5.65237 18.8616 5.76678 18.7885 5.86742C18.7154 5.96807 18.6227 6.05287 18.5159 6.11671L16.0435 7.75643C15.5874 8.03329 15.0497 8.14399 14.5214 8.06979C13.993 7.99559 13.5066 7.74104 13.1445 7.34926C12.7546 6.93469 12.2868 6.60106 11.7679 6.36743C11.2489 6.13381 10.689 6.00479 10.1202 5.98774C9.03349 6.03483 8.00448 6.48992 7.2385 7.26222C6.47253 8.03451 6.0259 9.06722 5.98774 10.1543C5.98412 10.5532 6.0435 10.9502 6.16369 11.3306C6.30789 11.8336 6.27377 12.3709 6.0671 12.8516C5.86043 13.3323 5.49393 13.7267 5.0297 13.968L2.57104 15.4327C2.42868 15.5176 2.26605 15.5624 2.10031 15.5626Z" fill="#FF6A00"/>
</g>
<path d="M44.098 10.5469H40.9872C40.9304 10.1444 40.8144 9.78693 40.6392 9.47443C40.464 9.1572 40.2391 8.88731 39.9645 8.66477C39.6899 8.44223 39.3726 8.27178 39.0128 8.15341C38.6577 8.03504 38.2718 7.97585 37.8551 7.97585C37.1023 7.97585 36.4465 8.16288 35.8878 8.53693C35.3291 8.90625 34.8958 9.44602 34.5881 10.1562C34.2803 10.8617 34.1264 11.7187 34.1264 12.7273C34.1264 13.7642 34.2803 14.6354 34.5881 15.3409C34.9006 16.0464 35.3362 16.5791 35.8949 16.9389C36.4536 17.2988 37.0999 17.4787 37.8338 17.4787C38.2457 17.4787 38.6269 17.4242 38.9773 17.3153C39.3324 17.2064 39.6473 17.0478 39.9219 16.8395C40.1965 16.6264 40.4238 16.3684 40.6037 16.0653C40.7884 15.7623 40.9162 15.4167 40.9872 15.0284L44.098 15.0426C44.0175 15.7102 43.8163 16.3542 43.4943 16.9744C43.1771 17.59 42.7486 18.1416 42.2088 18.6293C41.6738 19.1122 41.0346 19.4957 40.2912 19.7798C39.5526 20.0592 38.7169 20.1989 37.7841 20.1989C36.4867 20.1989 35.3267 19.9053 34.304 19.3182C33.286 18.7311 32.4811 17.8812 31.8892 16.7685C31.3021 15.6558 31.0085 14.3087 31.0085 12.7273C31.0085 11.1411 31.3068 9.79167 31.9034 8.67898C32.5 7.56629 33.3097 6.71875 34.3324 6.13636C35.3551 5.54924 36.5057 5.25568 37.7841 5.25568C38.6269 5.25568 39.4081 5.37405 40.1278 5.6108C40.8523 5.84754 41.4938 6.19318 42.0526 6.64773C42.6113 7.09754 43.0658 7.64915 43.4162 8.30256C43.7713 8.95597 43.9986 9.70407 44.098 10.5469ZM49.272 5.45455V20H46.2464V5.45455H49.272ZM51.6957 20V9.09091H54.7212V20H51.6957ZM53.2156 7.68466C52.7657 7.68466 52.3799 7.53551 52.0579 7.23722C51.7406 6.93419 51.582 6.57197 51.582 6.15057C51.582 5.7339 51.7406 5.37642 52.0579 5.07812C52.3799 4.77509 52.7657 4.62358 53.2156 4.62358C53.6654 4.62358 54.0489 4.77509 54.3661 5.07812C54.6881 5.37642 54.8491 5.7339 54.8491 6.15057C54.8491 6.57197 54.6881 6.93419 54.3661 7.23722C54.0489 7.53551 53.6654 7.68466 53.2156 7.68466ZM57.1449 20V9.09091H60.0284V11.0156H60.1562C60.3835 10.3764 60.7623 9.87216 61.2926 9.50284C61.8229 9.13352 62.4574 8.94886 63.196 8.94886C63.9441 8.94886 64.581 9.13589 65.1065 9.50994C65.6321 9.87926 65.9825 10.3812 66.1577 11.0156H66.2713C66.4938 10.3906 66.8963 9.8911 67.4787 9.51705C68.0658 9.13826 68.7595 8.94886 69.5597 8.94886C70.5777 8.94886 71.4039 9.2732 72.0384 9.92188C72.6776 10.5658 72.9972 11.4796 72.9972 12.6634V20H69.9787V13.2599C69.9787 12.6539 69.8177 12.1993 69.4957 11.8963C69.1738 11.5933 68.7713 11.4418 68.2884 11.4418C67.7391 11.4418 67.3106 11.617 67.0028 11.9673C66.6951 12.313 66.5412 12.7699 66.5412 13.3381V20H63.608V13.196C63.608 12.661 63.4541 12.2348 63.1463 11.9176C62.8433 11.6004 62.4432 11.4418 61.946 11.4418C61.6098 11.4418 61.3068 11.527 61.0369 11.6974C60.7718 11.8632 60.5611 12.0975 60.4048 12.4006C60.2486 12.6989 60.1705 13.0492 60.1705 13.4517V20H57.1449ZM78.4979 20.206C77.8018 20.206 77.1816 20.0852 76.6371 19.8438C76.0926 19.5975 75.6617 19.2353 75.3445 18.7571C75.032 18.2741 74.8757 17.6728 74.8757 16.9531C74.8757 16.3471 74.987 15.8381 75.2095 15.4261C75.4321 15.0142 75.7351 14.6828 76.1186 14.4318C76.5021 14.1809 76.9377 13.9915 77.4254 13.8636C77.9179 13.7358 78.4339 13.6458 78.9737 13.5938C79.6082 13.5275 80.1196 13.4659 80.5078 13.4091C80.8961 13.3475 81.1778 13.2576 81.353 13.1392C81.5282 13.0208 81.6158 12.8456 81.6158 12.6136V12.571C81.6158 12.1212 81.4737 11.7732 81.1896 11.527C80.9103 11.2808 80.5125 11.1577 79.9964 11.1577C79.4519 11.1577 79.0187 11.2784 78.6967 11.5199C78.3748 11.7566 78.1617 12.0549 78.0575 12.4148L75.2592 12.1875C75.4013 11.5246 75.6806 10.9517 76.0973 10.4688C76.514 9.98106 77.0514 9.60701 77.7095 9.34659C78.3724 9.08144 79.1394 8.94886 80.0107 8.94886C80.6167 8.94886 81.1967 9.01989 81.7507 9.16193C82.3094 9.30398 82.8042 9.52415 83.2351 9.82244C83.6707 10.1207 84.014 10.5043 84.2649 10.973C84.5159 11.437 84.6413 11.9934 84.6413 12.642V20H81.772V18.4872H81.6868C81.5116 18.8281 81.2772 19.1288 80.9837 19.3892C80.6901 19.6449 80.3374 19.8461 79.9254 19.9929C79.5135 20.1349 79.0376 20.206 78.4979 20.206ZM79.3643 18.1179C79.8094 18.1179 80.2024 18.0303 80.5433 17.8551C80.8842 17.6752 81.1518 17.4337 81.3459 17.1307C81.54 16.8277 81.6371 16.4844 81.6371 16.1009V14.9432C81.5424 15.0047 81.4122 15.0616 81.2464 15.1136C81.0855 15.161 80.9032 15.206 80.6996 15.2486C80.496 15.2865 80.2924 15.322 80.0888 15.3551C79.8852 15.3835 79.7005 15.4096 79.5348 15.4332C79.1797 15.4853 78.8696 15.5682 78.6044 15.6818C78.3393 15.7955 78.1333 15.9493 77.9865 16.1435C77.8397 16.3329 77.7663 16.5696 77.7663 16.8537C77.7663 17.2656 77.9155 17.5805 78.2138 17.7983C78.5168 18.0114 78.9003 18.1179 79.3643 18.1179Z" fill="#FF6A00"/>
<defs>
<clipPath id="clip0_312_1493">
<rect width="22.1086" height="22.1086" fill="white"/>
</clipPath>
</defs>
</svg>
