<svg width="61" height="61" viewBox="0 0 61 61" fill="none" xmlns="http://www.w3.org/2000/svg">
<g clip-path="url(#clip0_418_190)">
<path d="M60.0651 28.1174C59.6898 22.2683 57.611 16.6569 54.0851 11.975C50.5591 7.29309 45.7402 3.74531 40.2223 1.76906C34.7044 -0.207199 28.7288 -0.525536 23.0322 0.85329C17.3356 2.23212 12.167 5.24783 8.16357 9.52864C4.16016 13.8095 1.49697 19.1682 0.502327 24.9443C-0.492319 30.7204 0.225058 36.6613 2.56602 42.0347C4.90698 47.408 8.76918 51.9788 13.6765 55.1836C18.5838 58.3884 24.3217 60.0872 30.1828 60.0704L47.6402 60.0293C50.9544 60.0182 54.1288 58.6927 56.4668 56.3437C58.8047 53.9946 60.1153 50.814 60.1108 47.4999L60.0651 28.1174ZM55.1108 47.5116C55.1155 49.5008 54.3298 51.4103 52.9266 52.8201C51.5234 54.2299 49.6176 55.0246 47.6285 55.0293L30.171 55.0704C26.6433 55.0771 23.1539 54.3402 19.9301 52.9078C16.7064 51.4753 13.8207 49.3795 11.4614 46.7569C9.09063 44.1357 7.30772 41.0379 6.2322 37.6712C5.15667 34.3045 4.8134 30.7468 5.22539 27.2366C5.87594 21.6999 8.35067 16.5371 12.2594 12.5623C16.1682 8.58739 21.2887 6.02645 26.8137 5.28316C27.8915 5.1455 28.9767 5.07448 30.0633 5.0705C35.8894 5.04089 41.54 7.06324 46.0243 10.7829C48.6432 12.9491 50.7949 15.6246 52.3491 18.6471C53.9033 21.6697 54.8275 24.9763 55.0657 28.3667L55.1108 47.5116Z" fill="#FFAE74"/>
<path d="M20.0528 22.5942L30.0528 22.5706C30.7158 22.5691 31.3511 22.3042 31.8188 21.8343C32.2865 21.3643 32.5484 20.7278 32.5469 20.0648C32.5453 19.4017 32.2804 18.7665 31.8105 18.2987C31.3405 17.831 30.704 17.5691 30.041 17.5707L20.041 17.5942C19.378 17.5958 18.7427 17.8607 18.275 18.3306C17.8072 18.8005 17.5453 19.4371 17.5469 20.1001C17.5485 20.7631 17.8134 21.3984 18.2833 21.8661C18.7532 22.3339 19.3897 22.5958 20.0528 22.5942Z" fill="#FFAE74"/>
<path d="M40.0644 27.5471L20.0644 27.5942C19.4014 27.5958 18.7661 27.8607 18.2984 28.3306C17.8307 28.8005 17.5688 29.4371 17.5703 30.1001C17.5719 30.7631 17.8368 31.3984 18.3067 31.8661C18.7767 32.3339 19.4132 32.5958 20.0762 32.5942L40.0762 32.5471C40.7392 32.5455 41.3745 32.2806 41.8422 31.8107C42.3099 31.3408 42.5718 30.7043 42.5703 30.0412C42.5687 29.3782 42.3038 28.7429 41.8339 28.2752C41.3639 27.8074 40.7274 27.5455 40.0644 27.5471Z" fill="#FFAE74"/>
<path d="M40.0878 37.5471L20.0879 37.5942C19.4248 37.5958 18.7896 37.8607 18.3218 38.3306C17.8541 38.8005 17.5922 39.4371 17.5938 40.1001C17.5953 40.7631 17.8602 41.3984 18.3302 41.8661C18.8001 42.3339 19.4366 42.5958 20.0997 42.5942L40.0996 42.5471C40.7626 42.5455 41.3979 42.2806 41.8656 41.8107C42.3334 41.3408 42.5953 40.7043 42.5937 40.0412C42.5922 39.3782 42.3273 38.7429 41.8573 38.2752C41.3874 37.8074 40.7509 37.5455 40.0878 37.5471Z" fill="#FFAE74"/>
</g>
<defs>
<clipPath id="clip0_418_190">
<rect width="60" height="60" fill="white" transform="translate(0 0.141357) rotate(-0.134939)"/>
</clipPath>
</defs>
</svg>
