<svg width="101" height="24" viewBox="0 0 101 24" fill="none" xmlns="http://www.w3.org/2000/svg">
<g clip-path="url(#clip0_268_1426)">
<path d="M11.0149 23.0625L10.3727 22.5121C9.48748 21.7708 1.75781 15.0952 1.75781 10.2121C1.75781 5.09962 5.90235 0.955078 11.0149 0.955078C16.1274 0.955078 20.2719 5.09962 20.2719 10.2121C20.2719 15.0952 12.5423 21.7709 11.6607 22.5157L11.0149 23.0625ZM11.0149 2.95672C7.00972 2.96126 3.76404 6.20695 3.7595 10.2121C3.7595 13.2797 8.51509 18.1803 11.0149 20.4232C13.5147 18.1793 18.2702 13.276 18.2702 10.2121C18.2657 6.20695 15.0201 2.9613 11.0149 2.95672Z" fill="#FF6A00"/>
<path d="M11.0132 13.8818C8.98661 13.8818 7.34375 12.239 7.34375 10.2124C7.34375 8.18583 8.98661 6.54297 11.0132 6.54297C13.0397 6.54297 14.6826 8.18583 14.6826 10.2124C14.6826 12.239 13.0398 13.8818 11.0132 13.8818ZM11.0132 8.37764C9.99989 8.37764 9.17846 9.19906 9.17846 10.2123C9.17846 11.2256 9.99989 12.0471 11.0132 12.0471C12.0265 12.0471 12.8479 11.2256 12.8479 10.2123C12.8479 9.19906 12.0265 8.37764 11.0132 8.37764Z" fill="#FF6A00"/>
</g>
<path d="M25.8736 19V4.45455H31.6122C32.7107 4.45455 33.6482 4.65104 34.4247 5.04403C35.206 5.43229 35.8002 5.9839 36.2074 6.69886C36.6193 7.40909 36.8253 8.24479 36.8253 9.20597C36.8253 10.1719 36.617 11.0028 36.2003 11.6989C35.7836 12.3902 35.1799 12.9205 34.3892 13.2898C33.6032 13.6591 32.6515 13.8438 31.5341 13.8438H27.6918V11.3722H31.0369C31.6241 11.3722 32.1117 11.2917 32.5 11.1307C32.8883 10.9697 33.1771 10.7282 33.3665 10.4062C33.5606 10.0843 33.6577 9.68419 33.6577 9.20597C33.6577 8.72301 33.5606 8.31581 33.3665 7.98438C33.1771 7.65294 32.8859 7.40199 32.4929 7.23153C32.1046 7.05634 31.6146 6.96875 31.0227 6.96875H28.9489V19H25.8736ZM33.7287 12.3807L37.3438 19H33.9489L30.4119 12.3807H33.7287ZM43.7376 19.2131C42.6154 19.2131 41.6495 18.9858 40.8398 18.5312C40.0349 18.072 39.4147 17.4233 38.979 16.5852C38.5434 15.7424 38.3256 14.7457 38.3256 13.5952C38.3256 12.473 38.5434 11.4882 38.979 10.6406C39.4147 9.79309 40.0278 9.13258 40.8185 8.65909C41.614 8.18561 42.5468 7.94886 43.6168 7.94886C44.3365 7.94886 45.0065 8.06487 45.6268 8.29688C46.2518 8.52415 46.7963 8.86742 47.2603 9.3267C47.729 9.78598 48.0936 10.3636 48.354 11.0597C48.6145 11.7509 48.7447 12.5606 48.7447 13.4886V14.3196H39.533V12.4446H45.8967C45.8967 12.009 45.802 11.6231 45.6126 11.2869C45.4232 10.9508 45.1604 10.688 44.8242 10.4986C44.4928 10.3045 44.1069 10.2074 43.6665 10.2074C43.2073 10.2074 42.8001 10.3139 42.445 10.527C42.0946 10.7353 41.82 11.017 41.6211 11.3722C41.4222 11.7225 41.3204 12.1132 41.3157 12.544V14.3267C41.3157 14.8665 41.4151 15.3329 41.614 15.7259C41.8176 16.1188 42.104 16.4219 42.4734 16.6349C42.8427 16.848 43.2807 16.9545 43.7873 16.9545C44.1235 16.9545 44.4312 16.9072 44.7106 16.8125C44.9899 16.7178 45.229 16.5758 45.4279 16.3864C45.6268 16.197 45.7783 15.965 45.8825 15.6903L48.6808 15.875C48.5387 16.5473 48.2475 17.1345 47.8072 17.6364C47.3716 18.1335 46.8081 18.5218 46.1168 18.8011C45.4303 19.0758 44.6372 19.2131 43.7376 19.2131ZM55.6339 23.3182C54.6538 23.3182 53.8133 23.1832 53.1126 22.9134C52.4165 22.6482 51.8626 22.286 51.4506 21.8267C51.0387 21.3674 50.7712 20.8513 50.6481 20.2784L53.4464 19.902C53.5316 20.1198 53.6665 20.3234 53.8512 20.5128C54.0359 20.7022 54.2797 20.8537 54.5827 20.9673C54.8905 21.0857 55.2646 21.1449 55.7049 21.1449C56.363 21.1449 56.9052 20.9839 57.3313 20.6619C57.7622 20.3447 57.9776 19.812 57.9776 19.0639V17.0682H57.8498C57.7172 17.3712 57.5183 17.6577 57.2532 17.9276C56.988 18.1974 56.6471 18.4176 56.2305 18.5881C55.8138 18.7585 55.3166 18.8438 54.739 18.8438C53.9199 18.8438 53.1741 18.6544 52.5018 18.2756C51.8342 17.892 51.3015 17.3073 50.9038 16.5213C50.5108 15.7306 50.3143 14.7315 50.3143 13.5241C50.3143 12.2884 50.5155 11.2562 50.918 10.4276C51.3204 9.59896 51.8555 8.97869 52.5231 8.56676C53.1954 8.15483 53.9317 7.94886 54.7319 7.94886C55.3427 7.94886 55.854 8.05303 56.266 8.26136C56.6779 8.46496 57.0094 8.72064 57.2603 9.02841C57.516 9.33144 57.7125 9.62973 57.8498 9.9233H57.9634V8.09091H60.9677V19.1065C60.9677 20.0346 60.7404 20.8111 60.2859 21.4361C59.8313 22.0611 59.2016 22.5298 58.3967 22.8423C57.5965 23.1596 56.6755 23.3182 55.6339 23.3182ZM55.6978 16.571C56.1855 16.571 56.5974 16.4503 56.9336 16.2088C57.2745 15.9626 57.5349 15.6122 57.7148 15.1577C57.8995 14.6984 57.9918 14.1491 57.9918 13.5099C57.9918 12.8707 57.9019 12.3168 57.7219 11.848C57.542 11.3745 57.2816 11.0076 56.9407 10.7472C56.5998 10.4867 56.1855 10.3565 55.6978 10.3565C55.2006 10.3565 54.7816 10.4915 54.4407 10.7614C54.0998 11.0265 53.8417 11.3958 53.6665 11.8693C53.4914 12.3428 53.4038 12.8897 53.4038 13.5099C53.4038 14.1397 53.4914 14.6842 53.6665 15.1435C53.8465 15.598 54.1045 15.9508 54.4407 16.2017C54.7816 16.4479 55.2006 16.571 55.6978 16.571ZM63.3754 19V8.09091H66.4009V19H63.3754ZM64.8952 6.68466C64.4454 6.68466 64.0595 6.53551 63.7376 6.23722C63.4203 5.93419 63.2617 5.57197 63.2617 5.15057C63.2617 4.7339 63.4203 4.37642 63.7376 4.07812C64.0595 3.77509 64.4454 3.62358 64.8952 3.62358C65.3451 3.62358 65.7286 3.77509 66.0458 4.07812C66.3678 4.37642 66.5288 4.7339 66.5288 5.15057C66.5288 5.57197 66.3678 5.93419 66.0458 6.23722C65.7286 6.53551 65.3451 6.68466 64.8952 6.68466ZM71.9354 19.206C71.2393 19.206 70.6191 19.0852 70.0746 18.8438C69.5301 18.5975 69.0992 18.2353 68.782 17.7571C68.4695 17.2741 68.3132 16.6728 68.3132 15.9531C68.3132 15.3471 68.4245 14.8381 68.647 14.4261C68.8696 14.0142 69.1726 13.6828 69.5561 13.4318C69.9396 13.1809 70.3752 12.9915 70.8629 12.8636C71.3554 12.7358 71.8714 12.6458 72.4112 12.5938C73.0457 12.5275 73.5571 12.4659 73.9453 12.4091C74.3336 12.3475 74.6153 12.2576 74.7905 12.1392C74.9657 12.0208 75.0533 11.8456 75.0533 11.6136V11.571C75.0533 11.1212 74.9112 10.7732 74.6271 10.527C74.3478 10.2808 73.95 10.1577 73.4339 10.1577C72.8894 10.1577 72.4562 10.2784 72.1342 10.5199C71.8123 10.7566 71.5992 11.0549 71.495 11.4148L68.6967 11.1875C68.8388 10.5246 69.1181 9.9517 69.5348 9.46875C69.9515 8.98106 70.4889 8.60701 71.147 8.34659C71.8099 8.08144 72.5769 7.94886 73.4482 7.94886C74.0542 7.94886 74.6342 8.01989 75.1882 8.16193C75.7469 8.30398 76.2417 8.52415 76.6726 8.82244C77.1082 9.12074 77.4515 9.50426 77.7024 9.97301C77.9534 10.437 78.0788 10.9934 78.0788 11.642V19H75.2095V17.4872H75.1243C74.9491 17.8281 74.7147 18.1288 74.4212 18.3892C74.1276 18.6449 73.7749 18.8461 73.3629 18.9929C72.951 19.1349 72.4751 19.206 71.9354 19.206ZM72.8018 17.1179C73.2469 17.1179 73.6399 17.0303 73.9808 16.8551C74.3217 16.6752 74.5893 16.4337 74.7834 16.1307C74.9775 15.8277 75.0746 15.4844 75.0746 15.1009V13.9432C74.9799 14.0047 74.8497 14.0616 74.6839 14.1136C74.523 14.161 74.3407 14.206 74.1371 14.2486C73.9335 14.2865 73.7299 14.322 73.5263 14.3551C73.3227 14.3835 73.138 14.4096 72.9723 14.4332C72.6172 14.4853 72.3071 14.5682 72.0419 14.6818C71.7768 14.7955 71.5708 14.9493 71.424 15.1435C71.2772 15.3329 71.2038 15.5696 71.2038 15.8537C71.2038 16.2656 71.353 16.5805 71.6513 16.7983C71.9543 17.0114 72.3378 17.1179 72.8018 17.1179ZM85.3551 19.2131C84.2519 19.2131 83.2978 18.9787 82.4929 18.5099C81.6927 18.0365 81.0748 17.3783 80.6392 16.5355C80.2036 15.688 79.9858 14.7055 79.9858 13.5881C79.9858 12.4612 80.2036 11.4763 80.6392 10.6335C81.0748 9.78598 81.6927 9.12784 82.4929 8.65909C83.2978 8.18561 84.2519 7.94886 85.3551 7.94886C86.4583 7.94886 87.41 8.18561 88.2102 8.65909C89.0152 9.12784 89.6354 9.78598 90.071 10.6335C90.5066 11.4763 90.7244 12.4612 90.7244 13.5881C90.7244 14.7055 90.5066 15.688 90.071 16.5355C89.6354 17.3783 89.0152 18.0365 88.2102 18.5099C87.41 18.9787 86.4583 19.2131 85.3551 19.2131ZM85.3693 16.8693C85.8712 16.8693 86.2902 16.7273 86.6264 16.4432C86.9626 16.1544 87.2159 15.7614 87.3864 15.2642C87.5616 14.767 87.6491 14.2012 87.6491 13.5668C87.6491 12.9323 87.5616 12.3665 87.3864 11.8693C87.2159 11.3722 86.9626 10.9792 86.6264 10.6903C86.2902 10.4015 85.8712 10.2571 85.3693 10.2571C84.8627 10.2571 84.4366 10.4015 84.0909 10.6903C83.75 10.9792 83.492 11.3722 83.3168 11.8693C83.1463 12.3665 83.0611 12.9323 83.0611 13.5668C83.0611 14.2012 83.1463 14.767 83.3168 15.2642C83.492 15.7614 83.75 16.1544 84.0909 16.4432C84.4366 16.7273 84.8627 16.8693 85.3693 16.8693Z" fill="#FF6A00"/>
<defs>
<clipPath id="clip0_268_1426">
<rect width="22.1086" height="22.1086" fill="white" transform="translate(0 0.946289)"/>
</clipPath>
</defs>
</svg>
