<svg width="60" height="60" viewBox="0 0 60 60" fill="none" xmlns="http://www.w3.org/2000/svg">
<g clip-path="url(#clip0_434_210)">
<path d="M30 0C24.0666 0 18.2664 1.75947 13.3329 5.05591C8.39943 8.35235 4.55426 13.0377 2.28363 18.5195C0.0129986 24.0013 -0.581102 30.0333 0.576455 35.8527C1.73401 41.6721 4.59123 47.0176 8.78681 51.2132C12.9824 55.4088 18.3279 58.266 24.1473 59.4236C29.9667 60.5811 35.9987 59.987 41.4805 57.7164C46.9623 55.4458 51.6477 51.6006 54.9441 46.6671C58.2405 41.7336 60 35.9334 60 30C59.9914 22.0461 56.8279 14.4205 51.2037 8.7963C45.5795 3.17207 37.9539 0.0086027 30 0ZM30 55C25.0555 55 20.222 53.5338 16.1108 50.7867C11.9995 48.0397 8.79522 44.1352 6.90303 39.5671C5.01083 34.9989 4.51575 29.9723 5.48038 25.1227C6.44501 20.2732 8.82603 15.8186 12.3223 12.3223C15.8187 8.82602 20.2732 6.445 25.1228 5.48037C29.9723 4.51574 34.9989 5.01082 39.5671 6.90301C44.1353 8.7952 48.0397 11.9995 50.7868 16.1107C53.5338 20.222 55 25.0555 55 30C54.9927 36.6282 52.3565 42.9828 47.6696 47.6696C42.9828 52.3565 36.6282 54.9927 30 55ZM42.5 30C42.5 30.663 42.2366 31.2989 41.7678 31.7678C41.2989 32.2366 40.6631 32.5 40 32.5H32.5V40C32.5 40.663 32.2366 41.2989 31.7678 41.7678C31.2989 42.2366 30.6631 42.5 30 42.5C29.337 42.5 28.7011 42.2366 28.2322 41.7678C27.7634 41.2989 27.5 40.663 27.5 40V32.5H20C19.337 32.5 18.7011 32.2366 18.2322 31.7678C17.7634 31.2989 17.5 30.663 17.5 30C17.5 29.337 17.7634 28.7011 18.2322 28.2322C18.7011 27.7634 19.337 27.5 20 27.5H27.5V20C27.5 19.337 27.7634 18.7011 28.2322 18.2322C28.7011 17.7634 29.337 17.5 30 17.5C30.6631 17.5 31.2989 17.7634 31.7678 18.2322C32.2366 18.7011 32.5 19.337 32.5 20V27.5H40C40.6631 27.5 41.2989 27.7634 41.7678 28.2322C42.2366 28.7011 42.5 29.337 42.5 30Z" fill="url(#paint0_linear_434_210)"/>
</g>
<defs>
<linearGradient id="paint0_linear_434_210" x1="30" y1="0" x2="30" y2="60" gradientUnits="userSpaceOnUse">
<stop stop-color="#FFAE74"/>
<stop offset="1" stop-color="#FF6C03"/>
</linearGradient>
<clipPath id="clip0_434_210">
<rect width="60" height="60" fill="white"/>
</clipPath>
</defs>
</svg>
